<svg width="204" height="25" viewBox="0 0 204 25" fill="none" xmlns="http://www.w3.org/2000/svg">
<path d="M203.879 8H201.743C201.584 7.20454 201.296 6.46969 200.879 5.79545C200.47 5.11363 199.955 4.51894 199.334 4.01136C198.713 3.50379 198.008 3.10985 197.22 2.82954C196.432 2.54924 195.58 2.40909 194.664 2.40909C193.194 2.40909 191.853 2.79166 190.641 3.55682C189.436 4.32197 188.47 5.44697 187.743 6.93182C187.023 8.40909 186.664 10.2197 186.664 12.3636C186.664 14.5227 187.023 16.3409 187.743 17.8182C188.47 19.2955 189.436 20.4167 190.641 21.1818C191.853 21.9394 193.194 22.3182 194.664 22.3182C195.58 22.3182 196.432 22.178 197.22 21.8977C198.008 21.6174 198.713 21.2273 199.334 20.7273C199.955 20.2197 200.47 19.625 200.879 18.9432C201.296 18.2614 201.584 17.5227 201.743 16.7273H203.879C203.69 17.7955 203.334 18.7917 202.811 19.7159C202.296 20.6326 201.637 21.4356 200.834 22.125C200.039 22.8144 199.122 23.3523 198.084 23.7386C197.046 24.125 195.906 24.3182 194.664 24.3182C192.709 24.3182 190.974 23.8295 189.459 22.8523C187.944 21.8674 186.754 20.4811 185.891 18.6932C185.035 16.9053 184.607 14.7955 184.607 12.3636C184.607 9.93182 185.035 7.82197 185.891 6.03409C186.754 4.24621 187.944 2.86363 189.459 1.88636C190.974 0.901512 192.709 0.409088 194.664 0.409088C195.906 0.409088 197.046 0.60227 198.084 0.988634C199.122 1.36742 200.039 1.9053 200.834 2.60227C201.637 3.29166 202.296 4.0947 202.811 5.01136C203.334 5.92803 203.69 6.92424 203.879 8Z" fill="white"/>
<path d="M164.165 0.727272H166.62L173.518 11.7727H173.722L180.62 0.727272H183.074L174.677 13.9205V24H172.563V13.9205L164.165 0.727272Z" fill="white"/>
<path d="M160.48 0.727272V24H158.411L144.661 4.51136H144.48V24H142.355V0.727272H144.411L158.207 20.2386H158.389V0.727272H160.48Z" fill="white"/>
<path d="M135.274 24.1705C134.827 24.1705 134.441 24.0114 134.115 23.6932C133.797 23.3674 133.638 22.9811 133.638 22.5341C133.638 22.0795 133.797 21.6932 134.115 21.375C134.441 21.0568 134.827 20.8977 135.274 20.8977C135.729 20.8977 136.115 21.0568 136.433 21.375C136.751 21.6932 136.91 22.0795 136.91 22.5341C136.91 22.8295 136.835 23.1023 136.683 23.3523C136.539 23.6023 136.342 23.803 136.092 23.9545C135.85 24.0985 135.577 24.1705 135.274 24.1705Z" fill="white"/>
<path d="M114.047 24H108.774L116.808 0.727272H123.149L131.172 24H125.899L120.069 6.04545H119.887L114.047 24ZM113.717 14.8523H126.172V18.6932H113.717V14.8523Z" fill="white"/>
<path d="M87.1202 24V0.727272H92.0407V10.3295H102.029V0.727272H106.938V24H102.029V14.3864H92.0407V24H87.1202Z" fill="white"/>
<path d="M65.8189 4.78409V0.727272H84.9325V4.78409H77.8075V24H72.9439V4.78409H65.8189Z" fill="white"/>
<path d="M50.5828 24H45.3101L53.3442 0.727272H59.6851L67.7078 24H62.4351L56.6056 6.04545H56.4238L50.5828 24ZM50.2533 14.8523H62.7078V18.6932H50.2533V14.8523Z" fill="white"/>
<path d="M39.3383 8.25C39.1792 7.69697 38.9557 7.20833 38.6678 6.78409C38.38 6.35227 38.0277 5.98863 37.611 5.69318C37.2019 5.39015 36.7322 5.15909 36.2019 5C35.6792 4.84091 35.0997 4.76136 34.4633 4.76136C33.2739 4.76136 32.2284 5.05682 31.3269 5.64772C30.433 6.23863 29.736 7.09848 29.236 8.22727C28.736 9.34848 28.486 10.7197 28.486 12.3409C28.486 13.9621 28.7322 15.3409 29.2247 16.4773C29.7171 17.6136 30.4141 18.4811 31.3156 19.0795C32.2171 19.6705 33.2815 19.9659 34.5088 19.9659C35.6224 19.9659 36.5731 19.7689 37.361 19.375C38.1565 18.9735 38.7625 18.4091 39.1792 17.6818C39.6034 16.9545 39.8156 16.0947 39.8156 15.1023L40.8156 15.25H34.8156V11.5455H44.5542V14.4773C44.5542 16.5227 44.1224 18.2803 43.2588 19.75C42.3951 21.2121 41.2057 22.3409 39.6906 23.1364C38.1754 23.9242 36.4406 24.3182 34.486 24.3182C32.3042 24.3182 30.3875 23.8371 28.736 22.875C27.0845 21.9053 25.7966 20.5303 24.8724 18.75C23.9557 16.9621 23.4974 14.8409 23.4974 12.3864C23.4974 10.5 23.7701 8.81818 24.3156 7.34091C24.8686 5.85606 25.6413 4.59848 26.6338 3.56818C27.6262 2.53788 28.7815 1.75378 30.0997 1.21591C31.4178 0.678027 32.8459 0.409088 34.3838 0.409088C35.7019 0.409088 36.9292 0.60227 38.0656 0.988634C39.2019 1.36742 40.2095 1.9053 41.0883 2.60227C41.9747 3.29924 42.6981 4.12878 43.2588 5.09091C43.8194 6.04545 44.1792 7.09848 44.3383 8.25H39.3383Z" fill="white"/>
<path d="M6.03409 24H0.76136L8.79545 0.727272H15.1364L23.1591 24H17.8864L12.0568 6.04545H11.875L6.03409 24ZM5.70454 14.8523H18.1591V18.6932H5.70454V14.8523Z" fill="white"/>
</svg>
