<svg width="204" height="24" viewBox="0 0 204 24" fill="none" xmlns="http://www.w3.org/2000/svg">
<path d="M203.879 7.59091H201.743C201.584 6.79546 201.296 6.06061 200.879 5.38636C200.47 4.70455 199.955 4.10985 199.334 3.60227C198.713 3.0947 198.008 2.70076 197.22 2.42045C196.432 2.14015 195.58 2 194.664 2C193.194 2 191.853 2.38258 190.641 3.14773C189.436 3.91288 188.47 5.03788 187.743 6.52273C187.023 8 186.664 9.81061 186.664 11.9545C186.664 14.1136 187.023 15.9318 187.743 17.4091C188.47 18.8864 189.436 20.0076 190.641 20.7727C191.853 21.5303 193.194 21.9091 194.664 21.9091C195.58 21.9091 196.432 21.7689 197.22 21.4886C198.008 21.2083 198.713 20.8182 199.334 20.3182C199.955 19.8106 200.47 19.2159 200.879 18.5341C201.296 17.8523 201.584 17.1136 201.743 16.3182H203.879C203.69 17.3864 203.334 18.3826 202.811 19.3068C202.296 20.2235 201.637 21.0265 200.834 21.7159C200.039 22.4053 199.122 22.9432 198.084 23.3295C197.046 23.7159 195.906 23.9091 194.664 23.9091C192.709 23.9091 190.974 23.4205 189.459 22.4432C187.944 21.4583 186.754 20.072 185.891 18.2841C185.035 16.4962 184.607 14.3864 184.607 11.9545C184.607 9.52273 185.035 7.41288 185.891 5.625C186.754 3.83712 187.944 2.45455 189.459 1.47727C190.974 0.492424 192.709 0 194.664 0C195.906 0 197.046 0.193182 198.084 0.579546C199.122 0.958334 200.039 1.49621 200.834 2.19318C201.637 2.88258 202.296 3.68561 202.811 4.60227C203.334 5.51894 203.69 6.51515 203.879 7.59091Z" fill="#0C0A09"/>
<path d="M164.165 0.318184H166.62L173.518 11.3636H173.722L180.62 0.318184H183.074L174.677 13.5114V23.5909H172.563V13.5114L164.165 0.318184Z" fill="#0C0A09"/>
<path d="M160.48 0.318184V23.5909H158.411L144.661 4.10228H144.48V23.5909H142.355V0.318184H144.411L158.207 19.8295H158.389V0.318184H160.48Z" fill="#0C0A09"/>
<path d="M135.274 23.7614C134.827 23.7614 134.441 23.6023 134.115 23.2841C133.797 22.9583 133.638 22.572 133.638 22.125C133.638 21.6705 133.797 21.2841 134.115 20.9659C134.441 20.6477 134.827 20.4886 135.274 20.4886C135.729 20.4886 136.115 20.6477 136.433 20.9659C136.751 21.2841 136.91 21.6705 136.91 22.125C136.91 22.4205 136.835 22.6932 136.683 22.9432C136.539 23.1932 136.342 23.3939 136.092 23.5455C135.85 23.6894 135.577 23.7614 135.274 23.7614Z" fill="#0C0A09"/>
<path d="M114.047 23.5909H108.774L116.808 0.318184H123.149L131.172 23.5909H125.899L120.069 5.63637H119.887L114.047 23.5909ZM113.717 14.4432H126.172V18.2841H113.717V14.4432Z" fill="#0C0A09"/>
<path d="M87.1202 23.5909V0.318184H92.0407V9.92046H102.029V0.318184H106.938V23.5909H102.029V13.9773H92.0407V23.5909H87.1202Z" fill="#0C0A09"/>
<path d="M65.8189 4.375V0.318184H84.9325V4.375H77.8075V23.5909H72.9439V4.375H65.8189Z" fill="#0C0A09"/>
<path d="M50.5828 23.5909H45.3101L53.3442 0.318184H59.6851L67.7078 23.5909H62.4351L56.6056 5.63637H56.4238L50.5828 23.5909ZM50.2533 14.4432H62.7078V18.2841H50.2533V14.4432Z" fill="#0C0A09"/>
<path d="M39.3383 7.84091C39.1792 7.28788 38.9557 6.79924 38.6678 6.375C38.38 5.94318 38.0277 5.57955 37.611 5.28409C37.2019 4.98106 36.7322 4.75 36.2019 4.59091C35.6792 4.43182 35.0997 4.35227 34.4633 4.35227C33.2739 4.35227 32.2284 4.64773 31.3269 5.23864C30.433 5.82955 29.736 6.68939 29.236 7.81818C28.736 8.93939 28.486 10.3106 28.486 11.9318C28.486 13.553 28.7322 14.9318 29.2247 16.0682C29.7171 17.2045 30.4141 18.072 31.3156 18.6705C32.2171 19.2614 33.2815 19.5568 34.5088 19.5568C35.6224 19.5568 36.5731 19.3598 37.361 18.9659C38.1565 18.5644 38.7625 18 39.1792 17.2727C39.6034 16.5455 39.8156 15.6856 39.8156 14.6932L40.8156 14.8409H34.8156V11.1364H44.5542V14.0682C44.5542 16.1136 44.1224 17.8712 43.2588 19.3409C42.3951 20.803 41.2057 21.9318 39.6906 22.7273C38.1754 23.5152 36.4406 23.9091 34.486 23.9091C32.3042 23.9091 30.3875 23.428 28.736 22.4659C27.0845 21.4962 25.7966 20.1212 24.8724 18.3409C23.9557 16.553 23.4974 14.4318 23.4974 11.9773C23.4974 10.0909 23.7701 8.40909 24.3156 6.93182C24.8686 5.44697 25.6413 4.18939 26.6338 3.15909C27.6262 2.12879 28.7815 1.3447 30.0997 0.806818C31.4178 0.268939 32.8459 0 34.3838 0C35.7019 0 36.9292 0.193182 38.0656 0.579546C39.2019 0.958334 40.2095 1.49621 41.0883 2.19318C41.9747 2.89015 42.6981 3.7197 43.2588 4.68182C43.8194 5.63636 44.1792 6.68939 44.3383 7.84091H39.3383Z" fill="#0C0A09"/>
<path d="M6.03409 23.5909H0.76136L8.79545 0.318184H15.1364L23.1591 23.5909H17.8864L12.0568 5.63637H11.875L6.03409 23.5909ZM5.70454 14.4432H18.1591V18.2841H5.70454V14.4432Z" fill="#0C0A09"/>
</svg>
